{
	"asset":{
		"generator":"Khronos glTF Blender I/O v5.2.40",
		"version":"2.0"
	},
	"scene":0,
	"scenes":[
		{
			"name":"Scene",
			"nodes":[
				5
			]
		}
	],
	"nodes":[
		{
			"name":"FX_Engine_Left",
			"rotation":[
				-0.7071068286895752,
				0,
				0,
				0.7071068286895752
			],
			"translation":[
				5.855170249938965,
				-0.6239011883735657,
				-5.131829261779785
			]
		},
		{
			"name":"FX_Engine_Right",
			"rotation":[
				-0.7071068286895752,
				0,
				0,
				0.7071068286895752
			],
			"translation":[
				-5.874443054199219,
				-0.6239011883735657,
				-5.131829261779785
			]
		},
		{
			"mesh":0,
			"name":"GEO_Hull",
			"translation":[
				-0.009723854251205921,
				-0.3946499526500702,
				1.6936519145965576
			]
		},
		{
			"name":"HP_Gun_Left",
			"rotation":[
				0.7071068286895752,
				0,
				0,
				0.7071068286895752
			],
			"translation":[
				2.2613866329193115,
				0.8212261199951172,
				4.285003662109375
			]
		},
		{
			"name":"HP_Gun_Right",
			"rotation":[
				0.7071068286895752,
				0,
				0,
				0.7071068286895752
			],
			"translation":[
				-2.2323896884918213,
				0.8212261199951172,
				4.285003662109375
			]
		},
		{
			"children":[
				0,
				1,
				2,
				3,
				4
			],
			"name":"SHIP_Sidewinder",
			"translation":[
				0.009723854251205921,
				0.3946499526500702,
				-1.6936519145965576
			]
		}
	],
	"materials":[
		{
			"alphaMode":"BLEND",
			"doubleSided":true,
			"name":"Material.001",
			"pbrMetallicRoughness":{
				"baseColorTexture":{
					"index":0
				},
				"metallicFactor":0,
				"roughnessFactor":0.5
			}
		}
	],
	"meshes":[
		{
			"name":"GEO_Hull",
			"primitives":[
				{
					"attributes":{
						"POSITION":0,
						"NORMAL":1,
						"TEXCOORD_0":2
					},
					"indices":3,
					"material":0
				}
			]
		}
	],
	"textures":[
		{
			"sampler":0,
			"source":0
		}
	],
	"images":[
		{
			"mimeType":"image/png",
			"name":"Sidewinder_UV_Texture_V1_5",
			"uri":"Sidewinder_UV_Texture_V1_5.png"
		}
	],
	"accessors":[
		{
			"bufferView":0,
			"componentType":5126,
			"count":592,
			"max":[
				10.60270881652832,
				2.6997580528259277,
				6.686380863189697
			],
			"min":[
				-10.60270881652832,
				-2.4372596740722656,
				-6.824039936065674
			],
			"type":"VEC3"
		},
		{
			"bufferView":1,
			"componentType":5126,
			"count":592,
			"type":"VEC3"
		},
		{
			"bufferView":2,
			"componentType":5126,
			"count":592,
			"type":"VEC2"
		},
		{
			"bufferView":3,
			"componentType":5123,
			"count":954,
			"type":"SCALAR"
		}
	],
	"bufferViews":[
		{
			"buffer":0,
			"byteLength":7104,
			"byteOffset":0,
			"target":34962
		},
		{
			"buffer":0,
			"byteLength":7104,
			"byteOffset":7104,
			"target":34962
		},
		{
			"buffer":0,
			"byteLength":4736,
			"byteOffset":14208,
			"target":34962
		},
		{
			"buffer":0,
			"byteLength":1908,
			"byteOffset":18944,
			"target":34963
		}
	],
	"samplers":[
		{
			"magFilter":9728,
			"minFilter":9984
		}
	],
	"buffers":[
		{
			"byteLength":20852,
			"uri":"Sidewinder.bin"
		}
	]
}
